<svg width="18" height="16" viewBox="0 0 18 16" fill="none" xmlns="http://www.w3.org/2000/svg">
<path d="M1.6667 9.23975L7.99349 15.1458C8.25629 15.3913 8.60208 15.5273 8.96285 15.5273C9.32362 15.5273 9.67056 15.3913 9.93336 15.1458L16.259 9.23975C17.324 8.24964 17.9257 6.85957 17.9257 5.4061V5.20324C17.9257 2.7562 16.1576 0.668789 13.7451 0.266521C12.1487 0.000263706 10.5247 0.522405 9.38356 1.66351L8.96285 2.08307L8.54329 1.66351C7.40104 0.522405 5.77698 0.000263706 4.18059 0.266521C1.76813 0.668789 0 2.7562 0 5.20324V5.4061C0 6.85957 0.602826 8.24964 1.6667 9.23975Z" fill="black"/>
</svg>
