<svg width="56" height="57" viewBox="0 0 56 57" fill="none" xmlns="http://www.w3.org/2000/svg">
<path d="M47.796 8.92772C36.8597 -1.99905 19.131 -1.99643 8.19802 8.93374C-2.73499 19.8639 -2.73236 37.5824 8.20404 48.5092C19.1404 59.4359 36.869 59.4333 47.802 48.5032C53.0527 43.2538 56.0016 36.1349 56 28.7124C55.9985 21.2912 53.0474 14.1745 47.796 8.92772ZM42.405 39.7158C42.4038 39.717 42.4026 39.7184 42.4013 39.7196V39.7103L40.9826 41.1188C39.1478 42.9756 36.4757 43.7396 33.9359 43.1336C31.3771 42.4491 28.9446 41.3595 26.7306 39.9062C24.6737 38.5923 22.7675 37.0565 21.0466 35.3261C19.4632 33.7551 18.0407 32.0302 16.7999 30.177C15.4428 28.1829 14.3686 26.0107 13.6079 23.722C12.7359 21.0333 13.4585 18.0831 15.4746 16.101L17.1359 14.4407C17.5978 13.977 18.3483 13.9753 18.8122 14.437C18.8134 14.4382 18.8147 14.4394 18.8159 14.4407L24.0612 19.683C24.5252 20.1446 24.5268 20.8947 24.0649 21.3583C24.0637 21.3595 24.0625 21.3607 24.0612 21.362L20.9812 24.4403C20.0975 25.3139 19.9863 26.7022 20.7199 27.7051C21.8339 29.2331 23.0667 30.6709 24.4066 32.0054C25.9006 33.5049 27.5247 34.869 29.2599 36.0817C30.2626 36.7807 31.6219 36.6628 32.4892 35.8019L35.4665 32.7796C35.9284 32.3159 36.6789 32.3143 37.1428 32.7759C37.144 32.7771 37.1452 32.7783 37.1465 32.7796L42.4012 38.0406C42.8653 38.5021 42.8669 39.2521 42.405 39.7158Z" fill="#F1CDE5"/>
</svg>
