<svg width="56" height="56" viewBox="0 0 56 56" fill="none" xmlns="http://www.w3.org/2000/svg">
<path fill-rule="evenodd" clip-rule="evenodd" d="M28 56C12.5607 56 0 43.4393 0 28C0 12.5607 12.5607 0 28 0C43.4393 0 56 12.5607 56 28C56 43.4393 43.4393 56 28 56ZM42.5204 37.8362C42.8656 37.8362 43.1466 37.5553 43.1466 37.21V19.6316L28.9005 30.9445C28.6369 31.1539 28.3183 31.2586 27.9999 31.2586C27.6815 31.2586 27.363 31.1538 27.0993 30.9445L12.8533 19.6316V37.21C12.8533 37.5553 13.1343 37.8362 13.4795 37.8362H42.5204ZM40.3373 18.1638L28 27.9611L15.6626 18.1638H40.3373ZM46.0432 18.79V37.2103C46.0432 39.1526 44.4628 40.733 42.5204 40.733H13.4795C11.537 40.733 9.95684 39.1526 9.95684 37.2103V18.79C9.95684 16.8476 11.5371 15.2673 13.4795 15.2673H42.5204C44.4628 15.2672 46.0432 16.8476 46.0432 18.79Z" fill="#F1CDE5"/>
</svg>
