<svg width="245" height="245" viewBox="0 0 245 245" fill="none" xmlns="http://www.w3.org/2000/svg">
<circle cx="122.5" cy="122.5" r="122.5" fill="#F1CDE5"/>
<mask id="mask0_74_5685" style="mask-type:luminance" maskUnits="userSpaceOnUse" x="24" y="25" width="188" height="156">
<path d="M24.8887 25.3712H211.205V180.611H24.8887V25.3712Z" fill="white"/>
</mask>
<g mask="url(#mask0_74_5685)">
<path d="M208.3 93.1175L121.984 26.9887C119.677 25.2214 116.42 25.2214 114.11 26.9887L27.7521 93.1175C25.5537 94.8218 24.6905 97.7103 25.5747 100.34C26.48 102.97 28.94 104.738 31.7009 104.738H50.4492V173.863C50.4492 177.443 53.3393 180.331 56.9212 180.331H179.176C182.758 180.331 185.648 177.443 185.648 173.863V104.738H204.372C207.157 104.738 209.617 102.97 210.501 100.34C211.365 97.7103 210.477 94.8218 208.3 93.1175Z" fill="white"/>
</g>
<mask id="mask1_74_5685" style="mask-type:luminance" maskUnits="userSpaceOnUse" x="115" y="154" width="48" height="42">
<path d="M115.364 154.526H162.136V195.308H115.364V154.526Z" fill="white"/>
</mask>
<g mask="url(#mask1_74_5685)">
<path d="M119.713 178.621L136.221 194.022C136.907 194.662 137.809 195.017 138.75 195.017C139.692 195.017 140.597 194.662 141.283 194.022L157.787 178.621C160.566 176.039 162.136 172.414 162.136 168.624V168.095C162.136 161.713 157.523 156.27 151.228 155.221C147.063 154.527 142.825 155.888 139.848 158.864L138.75 159.958L137.656 158.864C134.675 155.888 130.438 154.527 126.272 155.221C119.978 156.27 115.365 161.713 115.365 168.095V168.624C115.365 172.414 116.937 176.039 119.713 178.621Z" fill="#3D3D3D"/>
</g>
<mask id="mask2_74_5685" style="mask-type:luminance" maskUnits="userSpaceOnUse" x="25" y="56" width="196" height="111">
<path d="M25.6582 56.6523H220.443V166.839H25.6582V56.6523Z" fill="white"/>
</mask>
<g mask="url(#mask2_74_5685)">
<path d="M220.266 114.744C220.266 117.016 218.428 118.855 216.152 118.855C214.774 118.855 213.553 118.179 212.807 117.136H110.284C109.475 117.136 108.72 116.706 108.308 116.006L107.617 114.84L102.378 105.961L98.5553 114.84L95.3584 122.258C94.9945 123.112 94.1584 123.665 93.2261 123.647C92.2968 123.638 91.4667 123.072 91.1209 122.213L89.7194 118.747L76.1439 165.174C75.8552 166.162 74.95 166.827 73.9425 166.827C73.8583 166.827 73.771 166.821 73.6838 166.812C72.5741 166.688 71.717 165.784 71.6478 164.669L68.6193 114.84L66.3698 77.8304L59.5128 114.84L58.1204 122.354C57.9339 123.358 57.1069 124.118 56.0904 124.221C55.0739 124.32 54.1115 123.743 53.7295 122.793L50.5296 114.84L46.7673 105.501L42.3615 114.84L41.8743 115.874C41.4923 116.685 40.6743 117.19 39.7781 117.19H35.9707L33.4264 117.208C32.6806 118.251 31.4896 118.855 30.1122 118.855C27.8416 118.855 25.998 117.016 25.998 114.744C25.998 112.474 27.8416 110.632 30.1122 110.632C31.5768 110.632 32.8129 111.449 33.5407 112.601L36.0098 112.619H38.3255L44.8576 98.7833C45.2456 97.9567 46.0877 97.4427 46.9989 97.4698C47.9132 97.4938 48.7222 98.0589 49.065 98.9065L55.0438 113.752L65.269 58.5668C65.4796 57.4246 66.5051 56.6191 67.666 56.6912C68.8268 56.7633 69.7501 57.6861 69.8193 58.8433L73.2207 114.84L75.4341 151.236L86.0774 114.84L87.1661 111.113C87.4398 110.175 88.2789 109.514 89.2563 109.463C90.2367 109.411 91.1329 109.989 91.4998 110.896L93.0938 114.84L93.3163 115.39L93.5539 114.84L99.9477 99.9916C100.288 99.198 101.048 98.663 101.912 98.6089C102.772 98.5548 103.596 98.9876 104.035 99.7331L111.598 112.543H212.678C213.406 111.395 214.69 110.632 216.152 110.632C218.425 110.632 220.266 112.474 220.266 114.744Z" fill="#3D3D3D"/>
</g>
</svg>
