<svg width="131" height="131" viewBox="0 0 131 131" fill="none" xmlns="http://www.w3.org/2000/svg">
<circle cx="65.5" cy="65.5" r="65.5" fill="#F1CDE5"/>
<path d="M86.2329 28.1108C97.7037 28.1108 107 37.4915 107 49.032C107 69.9881 86.2329 80.1479 65.5001 101.069C60.2622 95.7924 55.0265 91.2017 50.1275 86.9488H60.4465V77.1415H48.7845V65.3735H39.0681V77.1112C30.1323 68.6331 24 60.4278 24 49.032C24 37.4915 33.2961 28.1108 44.7328 28.1108C55.1163 28.1108 60.307 33.3141 65.4999 43.7919C70.693 33.3141 75.8837 28.1108 86.2329 28.1108Z" fill="white"/>
<path d="M62 77.4364V87.7256H50.7567H49.2934V100.07H38.7068V87.7256H26V77.4364H38.7068V77.4046V65.0898H49.2934V77.4364H62Z" fill="#3D3D3D"/>
</svg>
