<svg width="145" height="145" viewBox="0 0 145 145" fill="none" xmlns="http://www.w3.org/2000/svg">
<rect width="145" height="145" rx="24" fill="#BBD8F4"/>
<path d="M68.5801 29.7178C70.7003 28.0946 73.6727 28.0933 75.793 29.7188L121.535 64.7822L121.545 64.79L121.556 64.7988C123.533 66.3475 124.343 68.9755 123.556 71.376L123.553 71.3838L123.55 71.3926C122.739 73.807 120.48 75.4277 117.933 75.4277H110.51V109.581C110.51 112.86 107.859 115.511 104.58 115.511H39.793C36.5142 115.511 33.8634 112.86 33.8633 109.581V75.4277H26.4277C23.8843 75.4276 21.6399 73.8003 20.8174 71.4092L20.8145 71.4014L20.8115 71.3926C20.0064 68.9961 20.7927 66.3502 22.8027 64.791L22.8086 64.7871L22.8145 64.7822L68.5791 29.7188L68.5801 29.7178Z" stroke="white" stroke-width="5"/>
<path d="M66.9617 113.542V92.46H84.8279V114.257" stroke="white" stroke-width="5"/>
</svg>
