<svg width="56" height="56" viewBox="0 0 56 56" fill="none" xmlns="http://www.w3.org/2000/svg">
<circle cx="28" cy="28" r="28" fill="#F1CDE5"/>
<path d="M27.6667 12.5254C21.7852 12.5254 17 17.3079 17 23.186C17 24.9506 17.4414 26.7003 18.2806 28.2521L27.0834 44.1636C27.2006 44.3758 27.4239 44.5072 27.6667 44.5072C27.9095 44.5072 28.1328 44.3758 28.25 44.1636L37.056 28.2469C37.8919 26.7003 38.3334 24.9506 38.3334 23.1859C38.3334 17.3079 33.5482 12.5254 27.6667 12.5254ZM27.6667 28.5163C24.7259 28.5163 22.3334 26.1251 22.3334 23.186C22.3334 20.2469 24.7259 17.8557 27.6667 17.8557C30.6074 17.8557 33 20.2469 33 23.186C33 26.1251 30.6074 28.5163 27.6667 28.5163Z" fill="white"/>
</svg>
