<svg width="145" height="145" viewBox="0 0 145 145" fill="none" xmlns="http://www.w3.org/2000/svg">
<rect width="145" height="145" rx="24" fill="#BBD8F4"/>
<path d="M117.029 98.8434H108.818C108.31 98.8434 107.823 98.6418 107.465 98.283C107.106 97.9241 106.904 97.4373 106.904 96.9298C106.904 96.4223 107.106 95.9356 107.465 95.5767C107.823 95.2178 108.31 95.0162 108.818 95.0162H117.029C119.545 95.0131 121.957 94.0123 123.736 92.2334C125.515 90.4546 126.515 88.0428 126.518 85.5271V68.6252C126.515 66.1096 125.515 63.6978 123.736 61.9189C121.957 60.1401 119.545 59.1393 117.029 59.1362H108.818C108.31 59.1362 107.823 58.9346 107.465 58.5757C107.106 58.2168 106.904 57.7301 106.904 57.2226C106.904 56.715 107.106 56.2283 107.465 55.8694C107.823 55.5106 108.31 55.309 108.818 55.309H117.029C120.56 55.3128 123.945 56.7169 126.441 59.2134C128.938 61.7099 130.342 65.0947 130.346 68.6252V85.5271C130.342 89.0577 128.938 92.4425 126.441 94.939C123.945 97.4354 120.56 98.8396 117.029 98.8434Z" fill="white"/>
<path d="M37.0573 98.8434H28.8456C25.315 98.8396 21.9302 97.4354 19.4337 94.939C16.9373 92.4425 15.5331 89.0577 15.5293 85.5271V68.6252C15.5331 65.0947 16.9373 61.7099 19.4337 59.2134C21.9302 56.7169 25.315 55.3128 28.8456 55.309H37.0573C37.5648 55.309 38.0516 55.5106 38.4105 55.8694C38.7693 56.2283 38.9709 56.715 38.9709 57.2226C38.9709 57.7301 38.7693 58.2168 38.4105 58.5757C38.0516 58.9346 37.5648 59.1362 37.0573 59.1362H28.8456C26.3299 59.1393 23.9181 60.1401 22.1393 61.9189C20.3604 63.6978 19.3597 66.1096 19.3565 68.6252V85.5271C19.3597 88.0428 20.3604 90.4546 22.1393 92.2334C23.9181 94.0123 26.3299 95.0131 28.8456 95.0162H37.0573C37.5648 95.0162 38.0516 95.2178 38.4105 95.5767C38.7693 95.9356 38.9709 96.4223 38.9709 96.9298C38.9709 97.4373 38.7693 97.9241 38.4105 98.283C38.0516 98.6418 37.5648 98.8434 37.0573 98.8434Z" fill="white"/>
<path d="M72.978 38C76.8128 38.0102 80.5062 39.4512 83.3345 42.041L83.3374 42.0439C86.8606 45.2813 91.4687 47.0816 96.2534 47.0898H103.555C106.116 47.0898 108.572 48.1064 110.382 49.917C112.193 51.7275 113.209 54.1836 113.209 56.7441V97.4082C113.209 99.9687 112.193 102.425 110.382 104.235C108.572 106.046 106.116 107.062 103.555 107.062H42.3198C39.7596 107.062 37.3041 106.046 35.4937 104.235C33.6831 102.425 32.6655 99.9687 32.6655 97.4082V56.7441C32.6655 54.1836 33.6831 51.7275 35.4937 49.917C37.3041 48.1067 39.7596 47.0899 42.3198 47.0898H49.6138C54.4223 47.063 59.0488 45.2467 62.5913 41.9951L62.6011 41.9863L62.8696 41.748C65.674 39.3238 69.2631 37.9903 72.978 38Z" fill="#BBD8F4" stroke="white" stroke-width="4"/>
<path d="M93.5087 71.8138H52.3662C51.8587 71.8138 51.372 71.6122 51.0131 71.2533C50.6542 70.8944 50.4526 70.4077 50.4526 69.9002C50.4526 69.3927 50.6542 68.9059 51.0131 68.5471C51.372 68.1882 51.8587 67.9866 52.3662 67.9866H93.5087C94.0162 67.9866 94.503 68.1882 94.8618 68.5471C95.2207 68.9059 95.4223 69.3927 95.4223 69.9002C95.4223 70.4077 95.2207 70.8944 94.8618 71.2533C94.503 71.6122 94.0162 71.8138 93.5087 71.8138Z" fill="white"/>
<path d="M87.7678 87.8401H58.107C57.5994 87.8401 57.1127 87.6385 56.7538 87.2797C56.395 86.9208 56.1934 86.4341 56.1934 85.9265C56.1934 85.419 56.395 84.9323 56.7538 84.5734C57.1127 84.2145 57.5994 84.0129 58.107 84.0129H87.7678C88.2753 84.0129 88.7621 84.2145 89.1209 84.5734C89.4798 84.9323 89.6814 85.419 89.6814 85.9265C89.6814 86.4341 89.4798 86.9208 89.1209 87.2797C88.7621 87.6385 88.2753 87.8401 87.7678 87.8401Z" fill="white"/>
</svg>
