<svg width="145" height="145" viewBox="0 0 145 145" fill="none" xmlns="http://www.w3.org/2000/svg">
<rect width="145" height="145" rx="24" fill="#BBD8F4"/>
<mask id="mask0_90_191" style="mask-type:luminance" maskUnits="userSpaceOnUse" x="19" y="33" width="108" height="78">
<path d="M126.513 33.5342V110.479H19.7998V33.5342H126.513Z" fill="white" stroke="white" stroke-width="0.4"/>
</mask>
<g mask="url(#mask0_90_191)">
<path d="M118.885 33.7003C123.105 33.7003 126.494 37.0861 126.494 41.2452V102.569C126.494 106.791 123.107 110.178 118.885 110.178H27.3672C23.2082 110.178 19.8194 106.79 19.8193 102.569V41.2452C19.8195 37.0872 23.2093 33.7004 27.3672 33.7003H118.885ZM27.3672 36.589C24.8006 36.5891 22.7111 38.6787 22.7109 41.2452V102.569C22.711 105.201 24.8022 107.289 27.3672 107.289H118.885C121.515 107.289 123.604 105.2 123.604 102.569V41.2452C123.604 38.6803 121.517 36.589 118.885 36.589H27.3672Z" fill="white" stroke="white" stroke-width="0.4"/>
</g>
<path fill-rule="evenodd" clip-rule="evenodd" d="M116.706 101.636H29.5459C28.8593 101.636 28.3 101.077 28.3 100.39V43.4243C28.3 42.7405 28.8593 42.1785 29.5459 42.1785H116.706C117.393 42.1785 117.952 42.7405 117.952 43.4243V100.39C117.952 101.077 117.393 101.636 116.706 101.636ZM30.789 99.1473H115.463V44.6702H30.789V99.1473Z" fill="white"/>
<mask id="mask1_90_191" style="mask-type:luminance" maskUnits="userSpaceOnUse" x="46" y="107" width="53" height="16">
<path d="M98.5894 107.245V122.008H47.1587V107.245H98.5894Z" fill="white" stroke="white" stroke-width="0.4"/>
</mask>
<g mask="url(#mask1_90_191)">
<path d="M97.0325 107.289C97.8295 107.289 98.4788 107.938 98.4788 108.735V117.45C98.4788 119.925 96.3958 122.007 93.9211 122.007H52.3948C49.8545 122.007 47.8372 119.923 47.8372 117.45V108.735C47.8372 107.938 48.4859 107.289 49.2805 107.289H97.0325ZM50.7258 117.45C50.7258 118.34 51.449 119.116 52.3948 119.116H93.9211C94.8076 119.116 95.5901 118.336 95.5901 117.45V110.177H50.7258V117.45Z" fill="white" stroke="white" stroke-width="0.4"/>
</g>
<path fill-rule="evenodd" clip-rule="evenodd" d="M79.6629 89.557C79.04 89.557 78.5417 89.1223 78.4171 88.4994L72.628 56.9959L67.0244 76.2983C66.7753 77.2313 65.4685 77.4805 64.8456 76.6693L59.1811 69.4489L54.2613 75.6754C54.0758 75.9855 53.7021 76.1737 53.3283 76.1737H41.9966C40.3797 76.1737 40.3797 73.682 41.9966 73.682H52.7054L58.1844 66.6471C58.6827 66.0242 59.6794 66.0242 60.1778 66.6471L65.3439 73.2474L71.695 51.2068C72.0688 49.9609 73.8739 50.0246 74.123 51.3314L80.0367 83.5824L85.9504 67.27C86.2632 66.337 87.5091 66.1488 88.0683 66.8963L93.6082 73.9949H104.256C105.937 73.9949 105.937 76.4838 104.256 76.4838H92.9881C92.6143 76.4838 92.2406 76.2983 91.9914 75.9855L87.5091 70.1964L80.7842 88.7486C80.6596 89.1833 80.1613 89.557 79.6629 89.557Z" fill="white"/>
<path fill-rule="evenodd" clip-rule="evenodd" d="M46.044 67.58C45.7339 67.58 45.3601 67.4554 45.1719 67.2062C41.3125 63.4105 37.3894 59.4874 37.3894 55.2543C37.3894 50.6474 43.1813 48.5931 46.044 52.0151C48.9067 48.5931 54.6985 50.6474 54.6985 55.2543C54.6985 59.4874 50.7145 63.4105 46.916 67.2062C46.6669 67.4554 46.354 67.58 46.044 67.58ZM42.3092 52.8263C40.9996 52.8263 39.8811 53.8839 39.8811 55.2543C39.8811 58.1807 42.8684 61.4171 46.044 64.5927C49.2195 61.4171 52.2068 58.1807 52.2068 55.2543C52.2068 53.2609 49.0949 50.9575 47.1652 54.8805C46.6669 55.8136 45.3601 55.8136 44.9227 54.8805C44.0506 53.0754 43.4277 52.8263 42.3092 52.8263Z" fill="white"/>
<path fill-rule="evenodd" clip-rule="evenodd" d="M104.256 84.9501H93.9208C92.2403 84.9501 92.2403 82.4612 93.9208 82.4612H104.256C105.936 82.4612 105.936 84.9501 104.256 84.9501Z" fill="white"/>
<path fill-rule="evenodd" clip-rule="evenodd" d="M104.256 91.1767H93.9208C92.2403 91.1767 92.2403 88.6877 93.9208 88.6877H104.256C105.936 88.6877 105.936 91.1767 104.256 91.1767Z" fill="white"/>
<mask id="mask2_90_191" style="mask-type:luminance" maskUnits="userSpaceOnUse" x="49" y="23" width="48" height="14">
<path d="M96.4626 23.7998V36.7695H49.2849V23.7998H96.4626Z" fill="white" stroke="white" stroke-width="0.4"/>
</mask>
<g mask="url(#mask2_90_191)">
<path d="M89.9973 23.7998C93.5338 23.7999 96.3596 26.693 96.3596 30.1631V35.1436C96.3596 35.9402 95.7117 36.5887 94.9172 36.5889H51.3342C50.5397 36.5889 49.8909 35.9403 49.8909 35.1436V30.1631C49.8909 26.6903 52.7836 23.7999 56.3147 23.7998H89.9973ZM56.3147 26.6914C54.3687 26.6915 52.7795 28.2852 52.7795 30.1631V33.7002H93.4709V30.1631C93.4709 28.2809 91.939 26.6915 89.9973 26.6914H56.3147Z" fill="white" stroke="white" stroke-width="0.4"/>
</g>
<path fill-rule="evenodd" clip-rule="evenodd" d="M76.2378 105.809H70.014C68.3944 105.809 68.3944 103.317 70.014 103.317H76.2378C77.9211 103.317 77.9211 105.809 76.2378 105.809Z" fill="white"/>
</svg>
