<svg width="241" height="59" viewBox="0 0 241 59" fill="none" xmlns="http://www.w3.org/2000/svg">
<g clip-path="url(#clip0_74_5817)">
<mask id="mask0_74_5817" style="mask-type:luminance" maskUnits="userSpaceOnUse" x="0" y="-1" width="71" height="60">
<path d="M0 -0.00012207H70.6996V58.9405H0V-0.00012207Z" fill="white"/>
</mask>
<g mask="url(#mask0_74_5817)">
<path d="M69.5971 25.7216L36.8435 0.614048C35.9682 -0.0569774 34.7323 -0.0569774 33.8559 0.614048L1.08634 25.7216C0.252124 26.3686 -0.0753996 27.4653 0.260113 28.4639C0.603614 29.4624 1.53711 30.1334 2.58473 30.1334H9.69897V56.3787C9.69897 57.7379 10.7957 58.8346 12.1548 58.8346H58.5457C59.9049 58.8346 61.0016 57.7379 61.0016 56.3787V30.1334H68.1067C69.1634 30.1334 70.0969 29.4624 70.4324 28.4639C70.76 27.4653 70.4233 26.3686 69.5971 25.7216Z" fill="#F1CDE5"/>
</g>
<mask id="mask1_74_5817" style="mask-type:luminance" maskUnits="userSpaceOnUse" x="39" y="6" width="23" height="21">
<path d="M39.0571 6.95905H61.4479V26.4934H39.0571V6.95905Z" fill="white"/>
</mask>
<g mask="url(#mask1_74_5817)">
<path d="M41.139 18.4999L49.0417 25.8771C49.3699 26.1838 49.8019 26.3537 50.2525 26.3537C50.7031 26.3537 51.1365 26.1838 51.4648 25.8771L59.366 18.4999C60.6963 17.2632 61.4479 15.5269 61.4479 13.7114V13.458C61.4479 10.4014 59.2393 7.79405 56.226 7.29159C54.2319 6.95901 52.2033 7.61121 50.778 9.03654L50.2525 9.56061L49.7284 9.03654C48.3017 7.61121 46.2731 6.95901 44.279 7.29159C41.2657 7.79405 39.0571 10.4014 39.0571 13.458V13.7114C39.0571 15.5269 39.8101 17.2632 41.139 18.4999Z" fill="#3D3D3D"/>
</g>
<path d="M147.16 47.9274C146.929 47.9274 146.749 47.8628 146.62 47.7336C146.5 47.6043 146.44 47.4244 146.44 47.1937V39.2751H143.505C143.311 39.2751 143.159 39.2244 143.048 39.1229C142.937 39.0121 142.882 38.8598 142.882 38.666C142.882 38.4722 142.937 38.3245 143.048 38.223C143.159 38.1215 143.311 38.0707 143.505 38.0707H150.801C151.004 38.0707 151.161 38.1215 151.271 38.223C151.382 38.3245 151.437 38.4722 151.437 38.666C151.437 38.8598 151.382 39.0121 151.271 39.1229C151.161 39.2244 151.004 39.2751 150.801 39.2751H147.866V47.1937C147.866 47.4244 147.806 47.6043 147.686 47.7336C147.575 47.8628 147.4 47.9274 147.16 47.9274Z" fill="#474747"/>
<path d="M137.519 47.9551C137.094 47.9551 136.679 47.9228 136.273 47.8582C135.867 47.7936 135.484 47.6967 135.124 47.5675C134.764 47.429 134.441 47.2629 134.155 47.0691C134.016 46.9676 133.92 46.8522 133.864 46.723C133.818 46.5938 133.804 46.4692 133.823 46.3492C133.85 46.22 133.906 46.1093 133.989 46.017C134.072 45.9247 134.173 45.8693 134.293 45.8508C134.413 45.8232 134.547 45.8601 134.695 45.9616C135.11 46.2292 135.548 46.4277 136.01 46.5569C136.471 46.6768 136.974 46.7368 137.519 46.7368C138.303 46.7368 138.88 46.5984 139.249 46.3215C139.628 46.0354 139.817 45.6663 139.817 45.214C139.817 44.8449 139.683 44.5542 139.415 44.3419C139.148 44.1204 138.7 43.9451 138.073 43.8158L136.591 43.5113C135.715 43.3267 135.059 43.0221 134.626 42.5976C134.201 42.1731 133.989 41.6009 133.989 40.881C133.989 40.4472 134.076 40.0504 134.252 39.6905C134.436 39.3305 134.69 39.0214 135.013 38.7629C135.336 38.4953 135.724 38.2923 136.176 38.1538C136.628 38.0154 137.122 37.9462 137.657 37.9462C138.229 37.9462 138.765 38.02 139.263 38.1677C139.771 38.3153 140.223 38.5414 140.62 38.846C140.74 38.9291 140.818 39.0352 140.855 39.1644C140.901 39.2844 140.911 39.4044 140.883 39.5243C140.864 39.6443 140.814 39.7458 140.731 39.8289C140.647 39.912 140.541 39.9627 140.412 39.9812C140.283 39.9904 140.14 39.9443 139.983 39.8427C139.623 39.6028 139.254 39.432 138.876 39.3305C138.506 39.2198 138.096 39.1644 137.643 39.1644C137.191 39.1644 136.794 39.2336 136.453 39.3721C136.121 39.5105 135.862 39.7043 135.678 39.9535C135.502 40.2027 135.415 40.498 135.415 40.8395C135.415 41.2271 135.539 41.5363 135.788 41.767C136.038 41.9977 136.453 42.1731 137.034 42.293L138.502 42.5976C139.425 42.7914 140.112 43.0914 140.564 43.4974C141.017 43.9035 141.243 44.4434 141.243 45.1171C141.243 45.5509 141.155 45.9431 140.98 46.2938C140.804 46.6353 140.555 46.9306 140.232 47.1798C139.909 47.429 139.517 47.6228 139.055 47.7613C138.603 47.8905 138.091 47.9551 137.519 47.9551Z" fill="#474747"/>
<path d="M123.272 47.9274C123.059 47.9274 122.893 47.8674 122.773 47.7474C122.653 47.6275 122.593 47.4567 122.593 47.2352V38.6937C122.593 38.463 122.649 38.2877 122.759 38.1677C122.879 38.0385 123.036 37.9739 123.23 37.9739C123.396 37.9739 123.521 38.0062 123.604 38.0708C123.696 38.1262 123.802 38.2323 123.922 38.3892L129.626 45.9062H129.28V38.6522C129.28 38.4399 129.335 38.2738 129.446 38.1538C129.566 38.0339 129.732 37.9739 129.944 37.9739C130.166 37.9739 130.332 38.0339 130.443 38.1538C130.553 38.2738 130.609 38.4399 130.609 38.6522V47.2491C130.609 47.4613 130.553 47.6275 130.443 47.7474C130.341 47.8674 130.203 47.9274 130.027 47.9274C129.861 47.9274 129.723 47.8951 129.612 47.8305C129.51 47.7659 129.4 47.6552 129.28 47.4983L123.604 39.995H123.922V47.2352C123.922 47.4567 123.867 47.6275 123.756 47.7474C123.645 47.8674 123.484 47.9274 123.272 47.9274Z" fill="#474747"/>
<path d="M113.832 47.8305C113.583 47.8305 113.389 47.7659 113.25 47.6367C113.121 47.4982 113.057 47.3044 113.057 47.0552V38.846C113.057 38.5968 113.121 38.4076 113.25 38.2784C113.389 38.14 113.583 38.0707 113.832 38.0707H118.885C119.079 38.0707 119.226 38.1215 119.328 38.223C119.429 38.3153 119.48 38.4537 119.48 38.6383C119.48 38.8321 119.429 38.9798 119.328 39.0813C119.226 39.1828 119.079 39.2336 118.885 39.2336H114.441V42.293H118.58C118.783 42.293 118.931 42.3438 119.023 42.4453C119.125 42.5468 119.175 42.6899 119.175 42.8745C119.175 43.0683 119.125 43.2159 119.023 43.3175C118.931 43.4097 118.783 43.4559 118.58 43.4559H114.441V46.6676H118.885C119.079 46.6676 119.226 46.7184 119.328 46.8199C119.429 46.9214 119.48 47.0645 119.48 47.249C119.48 47.4428 119.429 47.5905 119.328 47.692C119.226 47.7843 119.079 47.8305 118.885 47.8305H113.832Z" fill="#474747"/>
<path d="M108.688 47.9274C108.457 47.9274 108.277 47.8628 108.148 47.7336C108.028 47.6044 107.968 47.4244 107.968 47.1937V38.7076C107.968 38.4676 108.028 38.2877 108.148 38.1677C108.277 38.0385 108.457 37.9739 108.688 37.9739C108.919 37.9739 109.094 38.0385 109.214 38.1677C109.343 38.2877 109.408 38.4676 109.408 38.7076V47.1937C109.408 47.4244 109.348 47.6044 109.228 47.7336C109.108 47.8628 108.928 47.9274 108.688 47.9274Z" fill="#474747"/>
<path d="M96.9627 47.8305C96.7136 47.8305 96.5197 47.7659 96.3813 47.6367C96.2521 47.4982 96.1875 47.3044 96.1875 47.0552V38.846C96.1875 38.5968 96.2521 38.4076 96.3813 38.2784C96.5197 38.14 96.7136 38.0707 96.9627 38.0707H99.6346C101.24 38.0707 102.477 38.4907 103.345 39.3305C104.221 40.1611 104.66 41.3655 104.66 42.9437C104.66 43.7281 104.549 44.4249 104.328 45.0341C104.106 45.6432 103.778 46.1554 103.345 46.5707C102.92 46.9768 102.399 47.2906 101.78 47.5121C101.162 47.7243 100.447 47.8305 99.6346 47.8305H96.9627ZM97.6272 46.6261H99.5515C100.161 46.6261 100.687 46.5522 101.13 46.4046C101.582 46.2477 101.96 46.017 102.265 45.7124C102.569 45.4078 102.795 45.0248 102.943 44.5634C103.091 44.1019 103.165 43.562 103.165 42.9437C103.165 41.7162 102.86 40.7979 102.251 40.1888C101.651 39.5797 100.751 39.2751 99.5515 39.2751H97.6272V46.6261Z" fill="#474747"/>
<path d="M87.4266 47.8305C87.1774 47.8305 86.9836 47.7659 86.8452 47.6367C86.716 47.4982 86.6514 47.3044 86.6514 47.0552V38.846C86.6514 38.5968 86.716 38.4076 86.8452 38.2784C86.9836 38.14 87.1774 38.0707 87.4266 38.0707H92.4795C92.6733 38.0707 92.821 38.1215 92.9225 38.223C93.024 38.3153 93.0748 38.4537 93.0748 38.6383C93.0748 38.8321 93.024 38.9798 92.9225 39.0813C92.821 39.1828 92.6733 39.2336 92.4795 39.2336H88.0357V42.293H92.175C92.378 42.293 92.5257 42.3438 92.6179 42.4453C92.7195 42.5468 92.7702 42.6899 92.7702 42.8745C92.7702 43.0683 92.7195 43.2159 92.6179 43.3175C92.5257 43.4097 92.378 43.4559 92.175 43.4559H88.0357V46.6676H92.4795C92.6733 46.6676 92.821 46.7184 92.9225 46.8199C93.024 46.9214 93.0748 47.0645 93.0748 47.249C93.0748 47.4428 93.024 47.5905 92.9225 47.692C92.821 47.7843 92.6733 47.8305 92.4795 47.8305H87.4266Z" fill="#474747"/>
<path d="M79.7095 47.9551C78.6481 47.9551 77.7529 47.7566 77.0238 47.3598C76.2947 46.9537 75.741 46.3769 75.3626 45.6294C74.9934 44.8818 74.8088 43.9912 74.8088 42.9575C74.8088 42.1823 74.915 41.4901 75.1272 40.881C75.3487 40.2627 75.6625 39.7366 76.0686 39.3028C76.4839 38.8598 76.9869 38.523 77.5776 38.2923C78.1774 38.0615 78.8558 37.9462 79.6126 37.9462C80.1663 37.9462 80.7108 38.02 81.2461 38.1677C81.7814 38.3061 82.2705 38.5368 82.7135 38.8598C82.8427 38.9521 82.9258 39.0583 82.9627 39.1782C82.9996 39.2982 82.9996 39.4228 82.9627 39.552C82.935 39.672 82.875 39.7781 82.7827 39.8704C82.6997 39.9627 82.5935 40.0181 82.4643 40.0365C82.3444 40.055 82.2105 40.0181 82.0629 39.9258C81.7029 39.6766 81.3245 39.4966 80.9277 39.3859C80.5308 39.2659 80.0925 39.2059 79.6126 39.2059C78.8927 39.2059 78.2836 39.3536 77.7852 39.6489C77.2961 39.9443 76.9269 40.3734 76.6777 40.9364C76.4285 41.4901 76.3039 42.1638 76.3039 42.9575C76.3039 44.185 76.5947 45.1171 77.1761 45.7539C77.7575 46.3907 78.6204 46.7092 79.7648 46.7092C80.1801 46.7092 80.5862 46.6722 80.9831 46.5984C81.3892 46.5153 81.7768 46.4 82.1459 46.2523L81.8552 46.9722V43.7466H80.0694C79.8848 43.7466 79.7372 43.7005 79.6264 43.6082C79.5249 43.5067 79.4741 43.3682 79.4741 43.1929C79.4741 43.0175 79.5249 42.8883 79.6264 42.8053C79.7372 42.713 79.8848 42.6668 80.0694 42.6668H82.4643C82.6581 42.6668 82.8058 42.7176 82.9073 42.8191C83.0088 42.9206 83.0596 43.0683 83.0596 43.2621V46.7507C83.0596 46.9168 83.0273 47.0599 82.9627 47.1798C82.9073 47.2906 82.8104 47.3736 82.672 47.429C82.2751 47.5859 81.8091 47.7151 81.2738 47.8166C80.7385 47.9089 80.2171 47.9551 79.7095 47.9551Z" fill="#474747"/>
<path d="M66.4068 47.8305C66.1576 47.8305 65.9638 47.7659 65.8254 47.6367C65.6962 47.4982 65.6316 47.3044 65.6316 47.0552V38.846C65.6316 38.5968 65.6962 38.4076 65.8254 38.2784C65.9638 38.14 66.1576 38.0707 66.4068 38.0707H71.4597C71.6535 38.0707 71.8012 38.1215 71.9027 38.223C72.0043 38.3153 72.055 38.4537 72.055 38.6383C72.055 38.8321 72.0043 38.9798 71.9027 39.0813C71.8012 39.1828 71.6535 39.2336 71.4597 39.2336H67.0159V42.293H71.1552C71.3582 42.293 71.5059 42.3438 71.5982 42.4453C71.6997 42.5468 71.7505 42.6899 71.7505 42.8745C71.7505 43.0683 71.6997 43.2159 71.5982 43.3175C71.5059 43.4097 71.3582 43.4559 71.1552 43.4559H67.0159V46.6676H71.4597C71.6535 46.6676 71.8012 46.7184 71.9027 46.8199C72.0043 46.9214 72.055 47.0645 72.055 47.249C72.055 47.4428 72.0043 47.5905 71.9027 47.692C71.8012 47.7843 71.6535 47.8305 71.4597 47.8305H66.4068Z" fill="#474747"/>
<path d="M57.3426 47.8305C57.1119 47.8305 56.9319 47.7659 56.8027 47.6367C56.6735 47.5075 56.6089 47.3275 56.6089 47.0968V38.7491C56.6089 38.5091 56.6689 38.3292 56.7889 38.2092C56.9181 38.08 57.098 38.0154 57.3288 38.0154C57.5595 38.0154 57.7348 38.08 57.8548 38.2092C57.984 38.3292 58.0486 38.5091 58.0486 38.7491V46.5984H62.3401C62.5432 46.5984 62.7001 46.6538 62.8108 46.7645C62.9216 46.866 62.9769 47.0137 62.9769 47.2075C62.9769 47.4013 62.9216 47.5536 62.8108 47.6644C62.7001 47.7751 62.5432 47.8305 62.3401 47.8305H57.3426Z" fill="#474747"/>
<path d="M48.3207 47.9274C48.0808 47.9274 47.8916 47.8628 47.7531 47.7336C47.6239 47.6043 47.5593 47.4152 47.5593 47.166V38.846C47.5593 38.5968 47.6239 38.4076 47.7531 38.2784C47.8916 38.14 48.0854 38.0707 48.3346 38.0707H53.2629C53.4659 38.0707 53.6136 38.1215 53.7059 38.223C53.8074 38.3153 53.8582 38.4537 53.8582 38.6383C53.8582 38.8321 53.8074 38.9798 53.7059 39.0813C53.6136 39.1828 53.4659 39.2336 53.2629 39.2336H48.9991V42.3484H52.986C53.1706 42.3484 53.3136 42.3992 53.4152 42.5007C53.5259 42.593 53.5813 42.7314 53.5813 42.916C53.5813 43.1098 53.5259 43.2575 53.4152 43.359C53.3136 43.4605 53.1706 43.5113 52.986 43.5113H48.9991V47.166C48.9991 47.6736 48.7729 47.9274 48.3207 47.9274Z" fill="#474747"/>
<path d="M38.0128 47.9274C37.7821 47.9274 37.6021 47.8628 37.4729 47.7336C37.353 47.6043 37.293 47.4244 37.293 47.1937V38.8044C37.293 38.5645 37.3576 38.3845 37.4868 38.2645C37.616 38.1353 37.796 38.0707 38.0267 38.0707H41.3353C42.3874 38.0707 43.1996 38.3338 43.7718 38.8598C44.344 39.3767 44.6301 40.1057 44.6301 41.0471C44.6301 41.9977 44.344 42.736 43.7718 43.2621C43.1996 43.7789 42.3874 44.0373 41.3353 44.0373H38.7327V47.1937C38.7327 47.4244 38.6727 47.6043 38.5527 47.7336C38.4328 47.8628 38.2528 47.9274 38.0128 47.9274ZM38.7327 42.8883H41.1276C41.8198 42.8883 42.3413 42.736 42.692 42.4315C43.0519 42.1177 43.2319 41.6562 43.2319 41.0471C43.2319 40.4472 43.0519 39.995 42.692 39.6904C42.3413 39.3767 41.8198 39.2198 41.1276 39.2198H38.7327V42.8883Z" fill="#474747"/>
<circle cx="174.526" cy="41.2383" r="17.7989" fill="#BBD8F4"/>
<path d="M180.192 47.7933L174.704 35.5884H177.613L181.785 45.3523H180.936L185.109 35.5884H187.913L182.425 47.7933H180.192Z" fill="#454545"/>
<path d="M162.293 47.7933V35.5884H166.95C168.369 35.5884 169.57 35.8307 170.551 36.3155C171.532 36.8002 172.27 37.4985 172.766 38.4102C173.274 39.3105 173.528 40.4011 173.528 41.6822C173.528 42.9517 173.274 44.0424 172.766 44.9542C172.27 45.8659 171.532 46.5699 170.551 47.0662C169.57 47.551 168.369 47.7933 166.95 47.7933H162.293ZM164.993 45.5774H166.794C168.156 45.5774 169.166 45.26 169.823 44.6252C170.493 43.9789 170.828 42.9979 170.828 41.6822C170.828 40.3549 170.493 39.3739 169.823 38.7392C169.166 38.1044 168.156 37.787 166.794 37.787H164.993V45.5774Z" fill="#454545"/>
<mask id="mask2_74_5817" style="mask-type:luminance" maskUnits="userSpaceOnUse" x="0" y="6" width="83" height="48">
<path d="M0.163086 6.95911H82.7097V53.6809H0.163086V6.95911Z" fill="white"/>
</mask>
<g mask="url(#mask2_74_5817)">
<path d="M82.6345 31.5912C82.6345 32.5547 81.8558 33.3347 80.891 33.3347C80.3073 33.3347 79.7898 33.0479 79.4738 32.6057H36.0262C35.6833 32.6057 35.3634 32.4234 35.1888 32.1265L34.8957 31.6319L32.6755 27.8671L31.0556 31.6319L29.7008 34.7774C29.5466 35.1394 29.1923 35.3739 28.7972 35.3662C28.4034 35.3624 28.0516 35.1228 27.9051 34.7583L27.3112 33.2888L21.5581 52.9747C21.4357 53.394 21.0521 53.6756 20.6252 53.6756C20.5895 53.6756 20.5525 53.6731 20.5155 53.6693C20.0453 53.617 19.682 53.2334 19.6527 52.7606L18.3693 31.6319L17.416 15.9391L14.5101 31.6319L13.92 34.8182C13.841 35.2439 13.4905 35.5663 13.0597 35.6097C12.629 35.6517 12.2211 35.407 12.0593 35.0043L10.7032 31.6319L9.1088 27.6721L7.24167 31.6319L7.0352 32.0704C6.87334 32.4145 6.52667 32.6286 6.14687 32.6286H4.53336L3.45514 32.6363C3.13906 33.0785 2.63436 33.3347 2.05064 33.3347C1.0884 33.3347 0.307129 32.5547 0.307129 31.5912C0.307129 30.6289 1.0884 29.8477 2.05064 29.8477C2.67132 29.8477 3.19514 30.1943 3.50357 30.6824L4.54993 30.6901H5.53129L8.2995 24.8236C8.46391 24.4731 8.82077 24.2552 9.20694 24.2666C9.59439 24.2768 9.93723 24.5164 10.0825 24.8758L12.6162 31.1706L16.9495 7.77082C17.0387 7.28651 17.4733 6.94495 17.9653 6.97553C18.4572 7.00612 18.8485 7.39739 18.8778 7.88807L20.3193 31.6319L21.2573 47.0648L25.7677 31.6319L26.2291 30.0516C26.3451 29.6539 26.7007 29.3735 27.1149 29.3519C27.5304 29.3302 27.9102 29.5749 28.0657 29.9598L28.7411 31.6319L28.8355 31.8652L28.9361 31.6319L31.6457 25.3359C31.7897 24.9995 32.1122 24.7726 32.478 24.7497C32.8425 24.7267 33.1917 24.9103 33.3778 25.2263L36.5831 30.6582H79.419C79.7274 30.1714 80.2716 29.8477 80.891 29.8477C81.8545 29.8477 82.6345 30.6289 82.6345 31.5912Z" fill="#3D3D3D"/>
</g>
<path d="M233.085 47.231C232.855 47.231 232.675 47.1664 232.545 47.0372C232.425 46.908 232.365 46.728 232.365 46.4973V38.0112C232.365 37.7712 232.425 37.5913 232.545 37.4713C232.675 37.3421 232.855 37.2775 233.085 37.2775C233.316 37.2775 233.491 37.3421 233.611 37.4713C233.741 37.5913 233.805 37.7712 233.805 38.0112V41.5828H239.273V38.0112C239.273 37.7712 239.333 37.5913 239.453 37.4713C239.583 37.3421 239.763 37.2775 239.993 37.2775C240.224 37.2775 240.399 37.3421 240.519 37.4713C240.639 37.5913 240.699 37.7712 240.699 38.0112V46.4973C240.699 46.728 240.639 46.908 240.519 47.0372C240.399 47.1664 240.224 47.231 239.993 47.231C239.763 47.231 239.583 47.1664 239.453 47.0372C239.333 46.908 239.273 46.728 239.273 46.4973V42.7872H233.805V46.4973C233.805 46.728 233.745 46.908 233.625 47.0372C233.505 47.1664 233.325 47.231 233.085 47.231Z" fill="#474747"/>
<path d="M226.415 47.2587C225.825 47.2587 225.312 47.111 224.879 46.8157C224.445 46.5111 224.154 46.1097 224.007 45.6113L224.159 45.3621V46.525C224.159 46.7465 224.099 46.9218 223.979 47.051C223.859 47.171 223.693 47.231 223.481 47.231C223.259 47.231 223.088 47.171 222.968 47.051C222.848 46.9218 222.788 46.7465 222.788 46.525V37.9835C222.788 37.7528 222.848 37.5774 222.968 37.4574C223.088 37.3375 223.259 37.2775 223.481 37.2775C223.702 37.2775 223.873 37.3375 223.993 37.4574C224.122 37.5774 224.187 37.7528 224.187 37.9835V41.8597H224.02C224.168 41.3705 224.459 40.9829 224.893 40.6968C225.326 40.4015 225.834 40.2538 226.415 40.2538C227.024 40.2538 227.551 40.3969 227.994 40.683C228.437 40.9691 228.778 41.3705 229.018 41.8874C229.267 42.4042 229.392 43.0272 229.392 43.7563C229.392 44.4669 229.267 45.0899 229.018 45.6251C228.778 46.1512 228.432 46.5573 227.98 46.8434C227.537 47.1202 227.015 47.2587 226.415 47.2587ZM226.069 46.1789C226.457 46.1789 226.794 46.0866 227.08 45.902C227.366 45.7174 227.587 45.4452 227.744 45.0852C227.901 44.7253 227.98 44.2823 227.98 43.7563C227.98 42.9626 227.804 42.3627 227.454 41.9566C227.112 41.5505 226.651 41.3475 226.069 41.3475C225.691 41.3475 225.354 41.4398 225.059 41.6243C224.773 41.7997 224.551 42.0673 224.394 42.4273C224.237 42.7872 224.159 43.2302 224.159 43.7563C224.159 44.5407 224.334 45.1406 224.685 45.5559C225.036 45.9712 225.497 46.1789 226.069 46.1789Z" fill="#474747"/>
<path d="M210.271 47.231C210.049 47.231 209.879 47.171 209.759 47.051C209.639 46.9218 209.579 46.7465 209.579 46.525V40.9876C209.579 40.7568 209.639 40.5815 209.759 40.4615C209.879 40.3415 210.045 40.2815 210.257 40.2815C210.478 40.2815 210.645 40.3415 210.755 40.4615C210.875 40.5815 210.935 40.7568 210.935 40.9876V42.1227L210.783 41.8182C210.968 41.329 211.254 40.946 211.641 40.6692C212.029 40.3923 212.495 40.2538 213.04 40.2538C213.602 40.2538 214.059 40.3877 214.41 40.6553C214.761 40.923 215.001 41.3336 215.13 41.8874H214.936C215.111 41.3798 215.411 40.9829 215.836 40.6968C216.26 40.4015 216.754 40.2538 217.317 40.2538C217.834 40.2538 218.259 40.3554 218.591 40.5584C218.923 40.7522 219.172 41.0522 219.338 41.4582C219.504 41.8551 219.588 42.3581 219.588 42.9672V46.525C219.588 46.7465 219.523 46.9218 219.394 47.051C219.274 47.171 219.103 47.231 218.881 47.231C218.66 47.231 218.489 47.171 218.369 47.051C218.249 46.9218 218.189 46.7465 218.189 46.525V43.0364C218.189 42.4642 218.088 42.0443 217.885 41.7766C217.691 41.509 217.368 41.3752 216.916 41.3752C216.408 41.3752 216.007 41.5505 215.711 41.9012C215.416 42.2519 215.268 42.7365 215.268 43.3548V46.525C215.268 46.7465 215.208 46.9218 215.088 47.051C214.968 47.171 214.798 47.231 214.576 47.231C214.355 47.231 214.179 47.171 214.05 47.051C213.93 46.9218 213.87 46.7465 213.87 46.525V43.0364C213.87 42.4642 213.773 42.0443 213.579 41.7766C213.386 41.509 213.063 41.3752 212.61 41.3752C212.103 41.3752 211.701 41.5505 211.406 41.9012C211.12 42.2519 210.977 42.7365 210.977 43.3548V46.525C210.977 46.9957 210.741 47.231 210.271 47.231Z" fill="#474747"/>
<path d="M202.9 47.2587C201.838 47.2587 200.943 47.0602 200.214 46.6634C199.485 46.2573 198.931 45.6805 198.553 44.9329C198.184 44.1854 197.999 43.2948 197.999 42.2611C197.999 41.4859 198.105 40.7937 198.317 40.1846C198.539 39.5662 198.853 39.0402 199.259 38.6064C199.674 38.1634 200.177 37.8266 200.768 37.5958C201.368 37.3651 202.046 37.2498 202.803 37.2498C203.356 37.2498 203.901 37.3236 204.436 37.4713C204.972 37.6097 205.461 37.8404 205.904 38.1634C206.033 38.2557 206.116 38.3619 206.153 38.4818C206.19 38.6018 206.19 38.7264 206.153 38.8556C206.125 38.9756 206.065 39.0817 205.973 39.174C205.89 39.2663 205.784 39.3217 205.655 39.3401C205.535 39.3586 205.401 39.3217 205.253 39.2294C204.893 38.9802 204.515 38.8002 204.118 38.6895C203.721 38.5695 203.283 38.5095 202.803 38.5095C202.083 38.5095 201.474 38.6572 200.975 38.9525C200.486 39.2478 200.117 39.677 199.868 40.24C199.619 40.7937 199.494 41.4674 199.494 42.2611C199.494 43.4886 199.785 44.4207 200.366 45.0575C200.948 45.6943 201.811 46.0127 202.955 46.0127C203.37 46.0127 203.776 45.9758 204.173 45.902C204.579 45.8189 204.967 45.7036 205.336 45.5559L205.045 46.2758V43.0502H203.26C203.075 43.0502 202.927 43.0041 202.817 42.9118C202.715 42.8103 202.664 42.6718 202.664 42.4965C202.664 42.3211 202.715 42.1919 202.817 42.1089C202.927 42.0166 203.075 41.9704 203.26 41.9704H205.655C205.848 41.9704 205.996 42.0212 206.098 42.1227C206.199 42.2242 206.25 42.3719 206.25 42.5657V46.0543C206.25 46.2204 206.217 46.3634 206.153 46.4834C206.098 46.5942 206.001 46.6772 205.862 46.7326C205.465 46.8895 204.999 47.0187 204.464 47.1202C203.929 47.2125 203.407 47.2587 202.9 47.2587Z" fill="#474747"/>
</g>
<defs>
<clipPath id="clip0_74_5817">
<rect width="240.615" height="59" fill="white"/>
</clipPath>
</defs>
</svg>
