<svg width="145" height="145" viewBox="0 0 145 145" fill="none" xmlns="http://www.w3.org/2000/svg">
<rect width="145" height="145" rx="24" fill="#BBD8F4"/>
<mask id="mask0_90_218" style="mask-type:luminance" maskUnits="userSpaceOnUse" x="37" y="39" width="81" height="80">
<path d="M37.9783 39.7666H117.2V118.712H37.9783V39.7666Z" fill="white"/>
</mask>
<g mask="url(#mask0_90_218)">
<path d="M112.771 46.7567L111.248 45.6748L111.245 45.6724L105.545 41.6281C102.228 39.2966 97.5345 40.0856 95.0824 43.3904C92.0894 47.4252 88.9452 51.4341 85.7372 55.3035C83.115 58.469 83.4717 63.2149 86.5333 65.8866L90.9791 69.7348C91.2059 69.9309 91.3429 70.2144 91.3665 70.5333C91.3902 70.9089 91.2579 71.2821 90.9933 71.5845C82.841 80.8187 78.844 84.8158 69.6097 92.9657C69.3074 93.2326 68.9294 93.3578 68.5561 93.3389C68.2396 93.3153 67.9561 93.1783 67.7577 92.9492L63.9024 88.4939C61.2401 85.4394 56.4966 85.0898 53.3335 87.7048C49.464 90.9129 45.4599 94.0571 41.4298 97.0454C38.1226 99.5022 37.3312 104.198 39.6699 107.525L43.7024 113.208C43.7024 113.211 43.7047 113.211 43.7047 113.211L44.7867 114.734C46.6009 117.309 49.5231 118.712 52.6295 118.712C54.0303 118.712 55.4713 118.427 56.8627 117.834C85.1891 105.904 103.936 87.1568 115.861 58.8375C117.775 54.3562 116.501 49.3883 112.771 46.7567ZM113.078 57.6564C101.477 85.2079 83.2402 103.445 55.6816 115.048C52.5256 116.397 49.0601 115.552 47.2553 112.989L46.1733 111.465C46.1733 111.465 46.1733 111.463 46.171 111.463L42.8567 106.792C46.1828 104.451 49.4971 102.044 52.724 99.6014C53.2791 99.1809 53.3878 98.3919 52.9673 97.8368C52.5492 97.2816 51.7602 97.173 51.2027 97.5934C48.0561 99.977 44.8221 102.323 41.5786 104.609C40.9904 102.793 41.5952 100.688 43.2299 99.4738C47.3025 96.4525 51.3515 93.2752 55.2635 90.0341C56.8226 88.7419 59.0006 88.6569 60.6188 89.6561C59.4802 90.6223 58.3345 91.5814 57.1911 92.5169C56.6525 92.9562 56.5745 93.75 57.0139 94.2886C57.2643 94.5933 57.6258 94.7516 57.9919 94.7516C58.2707 94.7516 58.5542 94.6571 58.788 94.4658C60.0046 93.4712 61.2236 92.4483 62.4354 91.4207L65.471 94.9264C66.1962 95.7697 67.2214 96.2776 68.353 96.3532C69.5341 96.4359 70.6987 96.0367 71.6082 95.2335C80.9582 86.9796 85.0072 82.9354 93.2587 73.5854C94.0643 72.6735 94.4635 71.5184 94.3808 70.3278C94.3052 69.1962 93.7973 68.171 92.954 67.4457L89.4507 64.4125C90.7334 62.9125 92.0091 61.403 93.2422 59.8982C93.6863 59.3619 93.6084 58.5682 93.0698 58.1265C92.5311 57.6847 91.7374 57.7603 91.2957 58.3013C90.1216 59.7305 88.9097 61.1667 87.6884 62.5959C86.6892 60.973 86.7719 58.7926 88.0664 57.2311C91.3051 53.3215 94.4848 49.2702 97.5109 45.1929C98.7204 43.5629 100.816 42.9558 102.625 43.5369C99.8519 47.3803 97.0006 51.212 94.1044 54.9397C93.6769 55.4878 93.7784 56.2791 94.3289 56.7067C94.558 56.8839 94.8297 56.9713 95.099 56.9713C95.4746 56.9713 95.8478 56.8036 96.0959 56.4847C99.0582 52.6719 101.976 48.7481 104.81 44.8149L109.495 48.1386C109.497 48.1386 109.497 48.1386 109.5 48.141L111.026 49.2253C113.582 51.0301 114.427 54.4932 113.078 57.6564Z" fill="white"/>
</g>
<path d="M54.2309 95.274L53.7554 95.6593C53.2042 96.1009 53.1049 96.9253 53.533 97.4946C53.7814 97.8258 54.1529 98 54.529 98C54.7987 98 55.0731 97.9117 55.3026 97.7252L55.7805 97.3424C56.3293 96.8983 56.4287 96.0764 56.0029 95.5047C55.577 94.9354 54.7821 94.8324 54.2309 95.274Z" fill="white"/>
<path d="M52.7422 73.981C48.7923 73.981 44.93 72.9054 41.5728 70.8699C40.8615 70.4383 39.9274 70.6624 39.4888 71.3747C39.0525 72.087 39.2801 73.0163 39.9961 73.4503C43.8276 75.7735 48.2351 77 52.7422 77C66.266 77 77.2671 66.056 77.2671 52.6048C77.2671 46.1374 74.7492 40.0451 70.178 35.4482C69.59 34.8562 68.6274 34.8491 68.0323 35.4364C67.4372 36.0237 67.4301 36.9789 68.0205 37.5709C72.025 41.5971 74.2323 46.937 74.2323 52.6048C74.2299 64.3908 64.5921 73.981 52.7422 73.981Z" fill="white"/>
<path d="M36.2545 66.4638C35.644 65.9053 34.5716 65.8428 33.8603 66.3221C33.1462 66.8013 33.0666 67.6432 33.6771 68.2017C34.2159 68.6934 34.7893 69.1727 35.3865 69.6249C35.7157 69.8771 36.143 70 36.5677 70C37.011 70 37.4569 69.8646 37.7887 69.5957C38.4417 69.0665 38.4231 68.2225 37.7516 67.7099C37.2287 67.3119 36.7243 66.893 36.2545 66.4638Z" fill="white"/>
<mask id="mask1_90_218" style="mask-type:luminance" maskUnits="userSpaceOnUse" x="28" y="28" width="40" height="38">
<path d="M28.0002 28H67.0066V65.1661H28.0002V28Z" fill="white"/>
</mask>
<g mask="url(#mask1_90_218)">
<path d="M28.0305 52.4357C28.0305 56.5602 29.077 60.6399 31.059 64.2283C31.3354 64.7267 31.8527 65.0078 32.3842 65.0078C32.6323 65.0078 32.8827 64.9488 33.1142 64.8212C33.8441 64.4173 34.1111 63.496 33.7071 62.766C31.9708 59.6241 31.0543 56.05 31.0543 52.4357C31.0543 40.6289 40.6594 31.0237 52.4638 31.0237C56.6663 31.0237 60.7342 32.2403 64.2257 34.5412C64.9226 35.0019 65.8628 34.8082 66.3211 34.1113C66.7794 33.4144 66.5857 32.4766 65.8888 32.0159C61.9012 29.389 57.2593 28 52.4638 28C38.9916 28 28.0305 38.9634 28.0305 52.4357Z" fill="white"/>
</g>
<path d="M39.5288 58.2367H47.0162V65.7383C47.0162 66.4353 47.5809 67 48.2779 67H57.2444C57.9414 67 58.5038 66.4353 58.5038 65.7383V58.2367H66.0078C66.7024 58.2367 67.2671 57.672 67.2671 56.9774V48.0085C67.2671 47.3138 66.7024 46.7491 66.0078 46.7491H58.5061V39.2593C58.5061 38.5647 57.9414 38 57.2444 38H48.2779C47.5809 38 47.0162 38.5647 47.0162 39.2593V46.7491H39.5288C38.8318 46.7491 38.2671 47.3138 38.2671 48.0085V56.9774C38.2671 57.672 38.8318 58.2367 39.5288 58.2367ZM40.7881 49.2702H48.2779C48.9726 49.2702 49.5373 48.7055 49.5373 48.0085V40.5187H55.9851V48.0085C55.9851 48.7055 56.5474 49.2678 57.2444 49.2678H64.7461V55.7157H57.2444C56.5498 55.7157 55.9851 56.2803 55.9851 56.9774V64.479H49.5373V56.9774C49.5373 56.2803 48.9726 55.718 48.2779 55.718H40.7881V49.2702Z" fill="white"/>
</svg>
