<svg width="145" height="145" viewBox="0 0 145 145" fill="none" xmlns="http://www.w3.org/2000/svg">
<rect width="145" height="145" rx="24" fill="#BBD8F4"/>
<path d="M35.3127 34.1611C59.318 23.1306 87.9995 24.0454 111.486 36.6816C110.638 39.2609 109.995 40.6363 108.421 42.415H108.42C102.832 48.7341 94.2773 53.1648 86.1165 55.7754L85.3274 56.0225C81.0967 57.3182 76.5726 58.2545 72.2659 57.9541C64.4729 57.4085 57.0988 54.6305 50.176 50.873L48.7981 50.1094C45.0868 48.0071 42.0362 45.7893 39.2776 42.6348H39.2766C37.2916 40.3628 36.2291 37.3513 35.3127 34.1611Z" stroke="white" stroke-width="3" stroke-miterlimit="1.5" stroke-linecap="round" stroke-linejoin="round"/>
<mask id="mask0_90_175" style="mask-type:luminance" maskUnits="userSpaceOnUse" x="20" y="46" width="105" height="75">
<path d="M20.6567 46.2173H124.52V120.33H20.6567V46.2173Z" fill="white"/>
</mask>
<g mask="url(#mask0_90_175)">
<path d="M41.6794 47.3184C42.4857 51.5905 42.5317 55.6733 42.6995 60.0104C43.0918 70.0888 43.1648 79.6342 34.2931 86.1115C30.2645 89.0525 25.6514 91.4551 21.1682 93.56C30.7325 109.553 58.3108 120.603 76.3194 119.328C86.3978 118.617 96.441 116.674 104.804 112.448C111.947 108.839 119.82 102.659 123.935 95.4323C110.794 85.6975 105.329 81.5985 104.883 64.2339C104.739 58.6684 104.728 52.9244 105.37 47.3833" stroke="white" stroke-width="3" stroke-miterlimit="1.5" stroke-linecap="round" stroke-linejoin="round"/>
<path d="M43.8401 68.1365C54.2681 70.3209 79.7228 73.4844 104.403 68.6667L105.898 78.8269C98.0625 79.3981 85.7524 79.8824 73.6819 79.8943C61.3583 79.9064 49.3992 79.425 42.6897 78.0798L42.4055 77.241L43.8401 68.1365Z" stroke="white" stroke-width="2"/>
</g>
<path d="M65.8679 67.5426C60.3736 67.1239 59 69.4612 59 70.6822V80.1011C59 82.1942 62.522 83.4152 64.283 83.764C71.8906 89.6247 78.7233 86.206 81.1887 83.764C84.9925 84.1827 86.6478 81.8454 87 80.6244V70.6822C86.5774 67.7518 81.8931 67.3681 79.6038 67.5426C74.9547 62.9377 68.5094 65.6239 65.8679 67.5426Z" fill="#BBD8F4" stroke="white" stroke-width="2.6"/>
<circle cx="73.0038" cy="76.0038" r="5.00384" stroke="white" stroke-width="2"/>
</svg>
